<svg width="50" height="50" viewBox="0 0 50 50" fill="none" xmlns="http://www.w3.org/2000/svg">
<circle cx="25" cy="25" r="25" fill="black"/>
<path d="M33.4375 14.2857V14.7857H33.9375H38.5V39.5H12.5V14.7857H17.0625H17.5625V14.2857V12.5714C17.5625 12.0056 17.7601 11.5281 18.1643 11.102C18.5605 10.7009 19.0392 10.5 19.5938 10.5C20.1483 10.5 20.627 10.7009 21.0232 11.102C21.4274 11.5281 21.625 12.0056 21.625 12.5714V14.2857V14.7857H22.125H28.875H29.375V14.2857V12.5714C29.375 12.0057 29.5726 11.5281 29.9768 11.1021C30.373 10.701 30.8517 10.5 31.4062 10.5C31.9608 10.5 32.4395 10.701 32.8357 11.1021C33.2399 11.5281 33.4375 12.0057 33.4375 12.5714V14.2857ZM30.4245 17.8059L30.4419 17.8255L30.4614 17.8433C30.7158 18.076 31.0367 18.2143 31.4062 18.2143C31.7758 18.2143 32.0967 18.076 32.3511 17.8433L32.3706 17.8255L32.388 17.8059C32.6166 17.5479 32.75 17.2257 32.75 16.8571V12.5755C32.7526 12.398 32.7202 12.2215 32.6547 12.0564C32.5885 11.8897 32.4897 11.7378 32.3638 11.6099C32.2379 11.482 32.0874 11.3807 31.9212 11.3126C31.7578 11.2457 31.5828 11.2122 31.4062 11.2142C31.2297 11.2122 31.0547 11.2457 30.8913 11.3126C30.7251 11.3807 30.5746 11.482 30.4487 11.6099C30.3228 11.7378 30.224 11.8897 30.1578 12.0564C30.0923 12.2215 30.0599 12.398 30.0625 12.5755V16.8571C30.0625 17.2257 30.1959 17.5479 30.4245 17.8059ZM37.3125 38.7857H37.8125V38.2857V21.1429V20.6429H37.3125H13.6875H13.1875V21.1429V38.2857V38.7857H13.6875H37.3125ZM18.25 12.5714V16.8531C18.2474 17.0306 18.2798 17.2071 18.3453 17.3722C18.4115 17.5388 18.5103 17.6908 18.6362 17.8187C18.7621 17.9466 18.9126 18.0478 19.0788 18.116C19.2422 18.1829 19.4172 18.2164 19.5937 18.2143C19.7703 18.2164 19.9453 18.1829 20.1087 18.116C20.2749 18.0478 20.4254 17.9466 20.5513 17.8187C20.6772 17.6908 20.776 17.5388 20.8422 17.3722C20.9077 17.2071 20.9401 17.0306 20.9375 16.8531V12.5714C20.9375 12.2132 20.8099 11.8761 20.541 11.6204C20.289 11.347 19.9536 11.2143 19.5938 11.2143C19.2339 11.2143 18.8985 11.347 18.6465 11.6204C18.3776 11.8761 18.25 12.2132 18.25 12.5714ZM19.9375 23.3571V25.7857H17.5625V23.3571H19.9375ZM24.3125 23.3571H26.6875V25.7857H24.3125V23.3571ZM31.0625 25.7857V23.3571H33.4375V25.7857H31.0625ZM19.9375 28.5V30.9286H17.5625V28.5H19.9375ZM24.3125 28.5H26.6875V30.9286H24.3125V28.5ZM31.0625 30.9286V28.5H33.4375V30.9286H31.0625ZM19.9375 33.6429V36.0714H17.5625V33.6429H19.9375ZM26.6875 36.0714H24.3125V33.6429H26.6875V36.0714ZM31.0625 36.0714V33.6429H33.4375V36.0714H31.0625Z" stroke="#FFC90E"/>
</svg>
