<svg width="50" height="50" viewBox="0 0 50 50" fill="none" xmlns="http://www.w3.org/2000/svg">
<circle cx="25" cy="25" r="25" fill="black"/>
<path d="M36.605 13.0255L36.6045 13.0246C36.4034 12.6993 36.0456 12.5 35.6658 12.5H15.3322C14.9524 12.5 14.5947 12.6993 14.3936 13.0246L14.393 13.0255L11.1266 18.2863C11.1266 18.2863 11.1266 18.2864 11.1266 18.2864C9.60194 20.7432 10.9911 24.0783 13.7286 24.4538C13.9322 24.4811 14.1412 24.4949 14.3508 24.4949C15.6883 24.4949 16.8738 23.9031 17.6912 22.9822L18.0652 22.5608L18.4391 22.9822C19.2564 23.9029 20.4468 24.4949 21.7796 24.4949C23.1171 24.4949 24.3026 23.9031 25.12 22.9822L25.494 22.5608L25.8679 22.9822C26.6852 23.9029 27.8756 24.4949 29.2084 24.4949C30.5459 24.4949 31.7314 23.9031 32.5488 22.9822L32.9218 22.562L33.2958 22.9811C34.119 23.9035 35.3052 24.4949 36.6372 24.4949C36.8517 24.4949 37.0558 24.4811 37.2599 24.4537L36.605 13.0255ZM36.605 13.0255L39.8715 18.2864L40.2962 18.0227M36.605 13.0255L40.2962 18.0227M40.2962 18.0227L39.8715 18.2865C41.4007 20.7477 40.0076 24.0827 37.2601 24.4537L40.2962 18.0227ZM35.1625 32H35.6625V31.5V27.0429C35.9834 27.0944 36.3128 27.125 36.6473 27.125C36.9763 27.125 37.2997 27.1032 37.6274 27.0599C37.7158 27.0488 37.8029 27.035 37.8887 27.0191V36.375C37.8887 37.0019 37.3886 37.5 36.7781 37.5H14.23C13.6195 37.5 13.1194 37.0019 13.1194 36.375V27.0162C13.2031 27.0322 13.2879 27.0466 13.3735 27.059L13.377 27.0594C13.6972 27.1032 14.0269 27.125 14.3508 27.125C14.6865 27.125 15.0162 27.0923 15.3355 27.0408V31.5V32H15.8355H35.1625Z" stroke="#FFC90E"/>
</svg>
