<svg width="50" height="50" viewBox="0 0 50 50" fill="none" xmlns="http://www.w3.org/2000/svg">
<circle cx="25" cy="25" r="25" fill="black"/>
<path d="M29.5796 19.0101L29.6891 19.2582L29.9568 19.3017L38.9485 20.7614C38.9487 20.7614 38.949 20.7614 38.9492 20.7615C39.261 20.8137 39.5559 21.1695 39.4914 21.6359L39.4914 21.6359L39.4908 21.6409C39.468 21.8192 39.3935 21.9757 39.2885 22.0908C39.2884 22.0909 39.2883 22.091 39.2882 22.0911L32.7822 29.1763L32.6198 29.3531L32.6563 29.5904L34.1935 39.5963L34.1936 39.5967C34.2659 40.0651 33.9777 40.4299 33.6687 40.4894L33.6679 40.4895C33.5444 40.5135 33.4142 40.4921 33.2997 40.424L33.2974 40.4226L25.2533 35.6985L25.0001 35.5499L24.7469 35.6985L16.7027 40.4226L16.7019 40.4231C16.6011 40.4826 16.4923 40.5068 16.3867 40.4984C16.2809 40.4899 16.1735 40.4483 16.0775 40.3704C15.9808 40.292 15.8993 40.1793 15.8489 40.0406C15.7984 39.9018 15.7832 39.7475 15.8065 39.5969L15.8066 39.5963L17.3439 29.5904L17.3803 29.3531L17.218 29.1763L10.7111 22.0902L10.7111 22.0901C10.5838 21.9516 10.5027 21.7515 10.5001 21.5312C10.4975 21.3112 10.5736 21.1083 10.698 20.9651C10.801 20.848 10.9252 20.7815 11.0486 20.7619L11.0499 20.7617L20.0433 19.3017L20.311 19.2582L20.4206 19.0101L24.4398 9.90855C24.44 9.90823 24.4401 9.90792 24.4403 9.9076C24.6164 9.51535 24.9906 9.419 25.2616 9.56842L25.2622 9.56876C25.3822 9.63469 25.4903 9.74965 25.5591 9.90584L25.5593 9.90625L29.5796 19.0101ZM16.9559 40.8538L25.0001 36.1297L10.3428 22.4284L16.8497 29.5144L15.3124 39.5204C15.2764 39.7532 15.2994 39.9926 15.379 40.2114C15.4585 40.4303 15.5914 40.6199 15.7625 40.7587C15.9336 40.8975 16.1361 40.98 16.3471 40.9968C16.558 41.0136 16.7689 40.964 16.9559 40.8538Z" stroke="#FFC90E"/>
</svg>
