<svg width="50" height="50" viewBox="0 0 50 50" fill="none" xmlns="http://www.w3.org/2000/svg">
<circle cx="25" cy="25" r="25" fill="black"/>
<path d="M31.3777 26.468L30.9213 26.6723C30.1325 24.9098 29.3565 23.4664 28.7785 22.4649C28.4896 21.9642 28.2504 21.5744 28.0841 21.3107C28.0407 21.2419 28.0023 21.1817 27.9692 21.1303H19.8671C19.3373 22.1593 18.5134 23.7166 17.3731 25.8162M31.3777 26.468L12 37.3369C12.493 37.2536 12.4929 37.253 12.4928 37.2525L12.4926 37.2514L12.4923 37.2493L12.4916 37.2455L12.4903 37.2389L12.4884 37.2304C12.4878 37.2282 12.4876 37.2274 12.4877 37.2277C12.4878 37.228 12.488 37.2289 12.4886 37.2306C12.4911 37.238 12.499 37.2599 12.5171 37.2935C12.5229 37.3043 12.5298 37.3165 12.5381 37.3299M31.3777 26.468L30.9214 26.6723C32.6506 30.5343 34.3145 32.8115 35.5671 34.1319C36.1935 34.7922 36.7164 35.2125 37.0919 35.4714C37.1891 35.5383 37.2762 35.5945 37.3527 35.6411C37.3465 35.6635 37.3397 35.6869 37.3323 35.7113C37.2554 35.9647 37.1142 36.3161 36.8588 36.6925C36.3563 37.4332 35.3829 38.314 33.4695 38.7063L33.4693 38.7064C32.7516 38.8538 32.1957 38.8879 31.6509 38.9214C31.4964 38.9309 31.3428 38.9404 31.1866 38.9524C30.4749 39.0069 29.7673 39.1135 28.8586 39.529M31.3777 26.468L28.8586 39.529M17.3731 25.8162L16.9347 25.5782L17.3732 25.8161C17.3732 25.8162 17.3731 25.8162 17.3731 25.8162ZM17.3731 25.8162C16.6331 27.1799 15.4107 30.0906 14.3633 32.6895C13.8421 33.9828 13.368 35.1894 13.0241 36.0729C12.8522 36.5145 12.7129 36.8752 12.6166 37.1255L12.5381 37.3299M12.5381 37.3299C12.5805 37.3987 12.6575 37.5008 12.7937 37.6202C13.1204 37.9066 13.8056 38.3079 15.2024 38.5636L15.2026 38.5636C15.8226 38.6774 16.2646 38.7179 16.6773 38.7556C16.906 38.7766 17.1258 38.7967 17.3618 38.828C18.0092 38.9139 18.6174 39.0757 19.4808 39.5443C19.654 39.6383 19.8169 39.7291 19.9736 39.8165C20.4898 40.1044 20.9381 40.3544 21.4645 40.5551C22.1297 40.8088 22.9199 40.9803 24.0732 40.9803C25.2334 40.9803 25.9289 40.8378 26.5632 40.6006C26.8887 40.4789 27.206 40.3293 27.5757 40.1478C27.6493 40.1117 27.7249 40.0743 27.8029 40.0358C28.1126 39.8827 28.459 39.7115 28.8586 39.529M12.5381 37.3299L28.8586 39.529" fill="black" stroke="#FFC90E"/>
<path d="M27.5842 12.3395L28.0432 9.50812L28.9369 9.76125C28.9121 10.6421 28.8282 12.8973 28.5908 15.181C28.4806 16.1963 28.3152 17.2209 28.1672 18.1371C28.1448 18.2759 28.1227 18.4121 28.1014 18.5455C28.0207 19.0491 27.9489 19.5148 27.9022 19.9099C27.8805 20.0938 27.863 20.271 27.8533 20.4352C27.6244 20.4623 27.3153 20.4966 26.9523 20.5315C26.1526 20.6082 25.0987 20.6867 24.0686 20.696L23.9984 20.6966L23.9375 20.696C22.9056 20.6854 21.8513 20.6069 21.0519 20.5304C20.6894 20.4958 20.3807 20.4617 20.1521 20.4348C20.1424 20.2707 20.1249 20.0937 20.1032 19.9099C20.0565 19.5148 19.9847 19.0491 19.904 18.5455C19.8827 18.4121 19.8607 18.2759 19.8382 18.1371C19.6902 17.2205 19.5246 16.1956 19.4145 15.1799L19.4145 15.1798C19.1665 12.897 19.0825 10.6395 19.0577 9.75854L19.9514 9.50541L20.4131 12.3399L20.4708 12.694L20.823 12.7524C20.823 12.7524 20.8231 12.7525 20.8231 12.7525C20.8232 12.7525 20.8233 12.7525 20.8236 12.7525H20.8236L20.8244 12.7527L20.8308 12.7539C20.8382 12.7553 20.851 12.7578 20.8688 12.7615C20.9043 12.7691 20.9597 12.7817 21.0325 12.801C21.1781 12.8396 21.3925 12.9047 21.6554 13.0082C22.1815 13.2153 22.8986 13.5755 23.6464 14.1844L23.7787 14.2922L23.9493 14.2965L24.0548 14.2992L24.2399 14.304L24.3834 14.1871C25.1325 13.5771 25.8427 13.2161 26.3609 13.0084C26.6199 12.9046 26.8304 12.8394 26.9729 12.8007C27.0441 12.7813 27.0982 12.7686 27.1328 12.761C27.1501 12.7572 27.1625 12.7547 27.1697 12.7534L27.1759 12.7522L27.1764 12.7521L27.1765 12.7521C27.177 12.752 27.1771 12.7519 27.1769 12.752L27.5271 12.6919L27.5842 12.3395ZM19.0396 9.76368L19.0396 9.76366L19.0396 9.76368Z" fill="black" stroke="#FFC90E"/>
<path d="M19.8332 20.7649L19.9153 20.1791C20.6494 20.2499 22.1673 20.3671 24.203 20.3671C26.1115 20.3671 27.3827 20.2636 28.031 20.1941L28.0936 20.772C27.4555 20.8536 26.2157 20.9937 24.203 20.9937C22.1041 20.9937 20.5778 20.8466 19.8332 20.7649Z" stroke="#FFC90E"/>
<path d="M27.0774 12.273C26.8501 12.2378 26.2032 12.4922 26.0354 12.5572C25.2966 12.8414 24.685 13.2338 24.0977 13.7615C24.095 13.7642 24.0598 13.7859 24.0165 13.7859C23.9732 13.7859 23.9434 13.7615 23.9407 13.7588C23.3534 13.2311 22.7364 12.8441 21.9975 12.5599C21.827 12.4949 21.1802 12.2405 20.9556 12.2757C20.6849 12.3163 21.0124 12.6167 21.5022 13.0443C21.9948 13.4719 22.6903 14.0728 23.2803 14.6032C23.4833 14.7845 23.754 14.8657 24.0165 14.8874C24.279 14.8657 24.5496 14.7845 24.7526 14.6032C25.3426 14.0728 26.0381 13.4719 26.5307 13.0443C27.0233 12.6167 27.348 12.3136 27.0774 12.273V12.273Z" fill="black"/>
<path d="M20.5672 29.2534C20.5496 29.4559 20.5318 29.6639 20.5138 29.877C20.2847 32.5996 20.034 36.1581 19.9197 39.7552C19.676 39.6218 19.3948 39.477 19.1193 39.3556C18.8015 39.2156 18.5466 39.1035 18.3624 39.0225C18.8714 35.3775 19.7463 31.9757 20.5057 29.4563C20.5263 29.388 20.5468 29.3204 20.5672 29.2534Z" stroke="#FFC90E"/>
<path d="M29.2511 39.3626C29.0106 39.4463 28.7046 39.5858 28.4461 39.7104C28.0685 37.2728 27.7939 34.8668 27.6891 32.6499C27.7038 32.698 27.7187 32.7463 27.7337 32.795C28.3236 34.7041 29.1429 37.0738 30.1134 39.1189C29.8588 39.1772 29.554 39.2574 29.2513 39.3625L29.2511 39.3626Z" stroke="#FFC90E"/>
</svg>
