<svg width="50" height="50" viewBox="0 0 50 50" fill="none" xmlns="http://www.w3.org/2000/svg">
<circle cx="25" cy="25" r="25" fill="black"/>
<path d="M24.7067 28.2842L24.7067 28.2842C23.8357 27.2728 22.2688 25.3797 20.9224 23.3634C20.249 22.3549 19.6377 21.3258 19.1963 20.3681C18.7503 19.4003 18.5 18.5516 18.5 17.8906C18.5 14.3685 21.4026 11.5 25 11.5C28.5974 11.5 31.5 14.3685 31.5 17.8906C31.5 18.5516 31.2497 19.4003 30.8037 20.3681C30.3623 21.3258 29.751 22.3549 29.0776 23.3634C27.7312 25.3797 26.1643 27.2728 25.2933 28.2842L25.2931 28.2845C25.1383 28.4646 24.8624 28.4651 24.7067 28.2842ZM10.301 23.275L10.1188 22.8124L10.301 23.275L16.4194 20.866C16.6821 21.5247 17.0097 22.1996 17.3889 22.8835V35.1761L10.027 38.4746C9.76307 38.5719 9.5 38.3759 9.5 38.1239V24.4346C9.5 24.4346 9.5 24.4346 9.5 24.4345C9.50008 24.1865 9.57559 23.9435 9.71777 23.7369C9.86004 23.53 10.0629 23.3687 10.301 23.275ZM39.6991 35.475L39.699 35.475L32.6111 38.2658V23.5739L39.973 20.2754C40.2369 20.1781 40.5 20.3741 40.5 20.6261V34.3155C40.5 34.5635 40.4245 34.8065 40.2823 35.0132C40.1401 35.22 39.9372 35.3813 39.6991 35.475ZM22.1667 17.8906C22.1667 19.4429 23.4424 20.6875 25 20.6875C26.5576 20.6875 27.8333 19.4429 27.8333 17.8906C27.8333 16.3383 26.5576 15.0938 25 15.0938C23.4424 15.0938 22.1667 16.3383 22.1667 17.8906ZM20.1667 27.0729C20.9674 28.1301 21.7988 29.1459 22.5926 30.0681C23.1955 30.7687 24.0737 31.1695 25 31.1695C25.9263 31.1695 26.8044 30.7688 27.4072 30.0688C28.2015 29.1466 29.0328 28.1304 29.8333 27.0733V38.3092L20.1667 35.1373V27.0729Z" stroke="#FFC90E"/>
</svg>
