<svg width="50" height="50" viewBox="0 0 50 50" fill="none" xmlns="http://www.w3.org/2000/svg">
<circle cx="25" cy="25" r="25" fill="black"/>
<mask id="path-2-inside-1_161:9406" fill="white">
<path d="M38.4722 37.8364L31.7517 33.424L25.0235 37.8364C24.8772 37.935 24.6967 37.9935 24.5006 37.9935C24.3045 37.9935 24.1239 37.935 23.9754 37.8342L23.9787 37.8364L17.256 33.424L10.5344 37.8364C10.3834 37.9375 10.2052 37.9926 10.0222 37.9947C9.83924 37.9968 9.65972 37.9459 9.50631 37.8483L9.50963 37.8505C9.35247 37.745 9.22394 37.6036 9.13515 37.4387C9.04636 37.2737 8.99997 37.0901 9 36.9037V36.8809V36.882V17.863V17.8413C9 17.46 9.19167 17.1231 9.48637 16.9172L9.48969 16.9151L16.7364 12.1571C16.8827 12.0585 17.0633 12 17.2594 12C17.4555 12 17.636 12.0585 17.7845 12.1592L17.7812 12.1571L24.5017 16.5695L31.2233 12.1571C31.3695 12.0585 31.5501 12 31.7462 12C31.9423 12 32.1229 12.0585 32.2713 12.1592L32.268 12.1571L39.5147 16.9151C39.8094 17.1198 40 17.4535 40 17.8294L39.9989 17.8706V17.8684V36.9145C39.9989 37.3056 39.7973 37.6501 39.4904 37.8559L39.4859 37.8581C39.3371 37.9512 39.1641 38.0005 38.9874 38C38.8004 37.9963 38.6185 37.9391 38.4645 37.8353L38.4678 37.8375L38.4722 37.8364ZM11.2158 18.5596V34.919L16.1304 31.5758V15.2164L11.2158 18.5596ZM25.6107 34.8583L30.6627 31.5412V24.1496C30.6139 24.1972 30.574 24.2438 30.5319 24.2915C30.4067 24.4334 30.2827 24.5753 30.1575 24.7107L29.3265 23.9936C29.444 23.8582 29.5681 23.7227 29.6933 23.5808C29.8871 23.3707 30.081 23.1475 30.2893 22.9243L30.656 23.2493V15.1817L25.6029 18.4989V26.1007C25.7644 26.0921 25.9252 26.0751 26.0848 26.0497L26.0594 26.053L26.2366 27.1222C26.0414 27.1501 25.8452 27.1703 25.6483 27.1829H25.614L25.6107 34.8583ZM18.3429 31.5487L23.3949 34.8583V26.0389L23.1046 26.9056C22.5908 26.7423 22.1007 26.5147 21.6466 26.2285L21.671 26.2426L22.2593 25.3217C22.5861 25.5287 22.9606 25.7096 23.3572 25.845L23.3949 25.8558V18.4978L18.3429 15.1817V22.0111C18.6708 22.1812 18.9467 22.3491 19.2104 22.5343L19.1882 22.5192L18.5445 23.3988C18.4825 23.3512 18.4138 23.3122 18.344 23.2634L18.3429 31.5487ZM33.6462 22.0522C33.3734 22.1092 33.1075 22.1942 32.853 22.3057L32.8785 22.296V31.5856L37.7853 34.8572V18.4924L32.8707 15.2067V21.1292C33.0136 21.0816 33.1997 21.0328 33.3892 20.9938L33.4246 20.9873L33.6462 22.0522ZM27.2924 25.6792C27.7024 25.4799 28.0558 25.2405 28.3693 24.9588L28.366 24.9621L29.0994 25.7746C28.712 26.1191 28.2781 26.41 27.8098 26.6391L27.7766 26.6542L27.2924 25.6792ZM19.6225 24.4616C19.5605 24.3803 19.4918 24.3056 19.422 24.2254L20.2662 23.5212L20.4734 23.765C20.7149 24.0423 20.9365 24.3067 21.1824 24.545L20.4213 25.3304C20.1429 25.0625 19.88 24.7796 19.6336 24.4832L19.6181 24.4637L19.6225 24.4616ZM12.5552 24.7216L12.5696 24.6674C12.7203 24.1398 12.9386 23.6794 13.2189 23.2623L13.2067 23.2807L14.1207 23.8874C13.9124 24.207 13.744 24.5764 13.6354 24.9707L13.6288 24.9989L13.6088 25.0596L12.5552 24.7216ZM35.7158 22.5072L35.0067 23.2114L34.2179 22.4401L34.938 21.7467L34.2179 21.0534L35.0067 20.2821L35.7158 20.9862L36.4248 20.2821L37.2136 21.0534L36.4935 21.7467L37.2136 22.4401L36.4248 23.2114L35.7158 22.5072ZM13.9822 22.3231C14.2129 22.1097 14.4692 21.9246 14.7455 21.7717L14.7655 21.7619C14.9527 21.6612 15.1732 21.5669 15.4014 21.4922L15.4291 21.4846L15.7681 22.5137C15.6019 22.5614 15.8512 22.5549 15.6994 22.6362C15.3294 22.7792 15.0125 22.9406 14.7156 23.1302L14.7367 23.1172L13.9822 22.3231Z"/>
</mask>
<path d="M38.4722 37.8364L31.7517 33.424L25.0235 37.8364C24.8772 37.935 24.6967 37.9935 24.5006 37.9935C24.3045 37.9935 24.1239 37.935 23.9754 37.8342L23.9787 37.8364L17.256 33.424L10.5344 37.8364C10.3834 37.9375 10.2052 37.9926 10.0222 37.9947C9.83924 37.9968 9.65972 37.9459 9.50631 37.8483L9.50963 37.8505C9.35247 37.745 9.22394 37.6036 9.13515 37.4387C9.04636 37.2737 8.99997 37.0901 9 36.9037V36.8809V36.882V17.863V17.8413C9 17.46 9.19167 17.1231 9.48637 16.9172L9.48969 16.9151L16.7364 12.1571C16.8827 12.0585 17.0633 12 17.2594 12C17.4555 12 17.636 12.0585 17.7845 12.1592L17.7812 12.1571L24.5017 16.5695L31.2233 12.1571C31.3695 12.0585 31.5501 12 31.7462 12C31.9423 12 32.1229 12.0585 32.2713 12.1592L32.268 12.1571L39.5147 16.9151C39.8094 17.1198 40 17.4535 40 17.8294L39.9989 17.8706V17.8684V36.9145C39.9989 37.3056 39.7973 37.6501 39.4904 37.8559L39.4859 37.8581C39.3371 37.9512 39.1641 38.0005 38.9874 38C38.8004 37.9963 38.6185 37.9391 38.4645 37.8353L38.4678 37.8375L38.4722 37.8364ZM11.2158 18.5596V34.919L16.1304 31.5758V15.2164L11.2158 18.5596ZM25.6107 34.8583L30.6627 31.5412V24.1496C30.6139 24.1972 30.574 24.2438 30.5319 24.2915C30.4067 24.4334 30.2827 24.5753 30.1575 24.7107L29.3265 23.9936C29.444 23.8582 29.5681 23.7227 29.6933 23.5808C29.8871 23.3707 30.081 23.1475 30.2893 22.9243L30.656 23.2493V15.1817L25.6029 18.4989V26.1007C25.7644 26.0921 25.9252 26.0751 26.0848 26.0497L26.0594 26.053L26.2366 27.1222C26.0414 27.1501 25.8452 27.1703 25.6483 27.1829H25.614L25.6107 34.8583ZM18.3429 31.5487L23.3949 34.8583V26.0389L23.1046 26.9056C22.5908 26.7423 22.1007 26.5147 21.6466 26.2285L21.671 26.2426L22.2593 25.3217C22.5861 25.5287 22.9606 25.7096 23.3572 25.845L23.3949 25.8558V18.4978L18.3429 15.1817V22.0111C18.6708 22.1812 18.9467 22.3491 19.2104 22.5343L19.1882 22.5192L18.5445 23.3988C18.4825 23.3512 18.4138 23.3122 18.344 23.2634L18.3429 31.5487ZM33.6462 22.0522C33.3734 22.1092 33.1075 22.1942 32.853 22.3057L32.8785 22.296V31.5856L37.7853 34.8572V18.4924L32.8707 15.2067V21.1292C33.0136 21.0816 33.1997 21.0328 33.3892 20.9938L33.4246 20.9873L33.6462 22.0522ZM27.2924 25.6792C27.7024 25.4799 28.0558 25.2405 28.3693 24.9588L28.366 24.9621L29.0994 25.7746C28.712 26.1191 28.2781 26.41 27.8098 26.6391L27.7766 26.6542L27.2924 25.6792ZM19.6225 24.4616C19.5605 24.3803 19.4918 24.3056 19.422 24.2254L20.2662 23.5212L20.4734 23.765C20.7149 24.0423 20.9365 24.3067 21.1824 24.545L20.4213 25.3304C20.1429 25.0625 19.88 24.7796 19.6336 24.4832L19.6181 24.4637L19.6225 24.4616ZM12.5552 24.7216L12.5696 24.6674C12.7203 24.1398 12.9386 23.6794 13.2189 23.2623L13.2067 23.2807L14.1207 23.8874C13.9124 24.207 13.744 24.5764 13.6354 24.9707L13.6288 24.9989L13.6088 25.0596L12.5552 24.7216ZM35.7158 22.5072L35.0067 23.2114L34.2179 22.4401L34.938 21.7467L34.2179 21.0534L35.0067 20.2821L35.7158 20.9862L36.4248 20.2821L37.2136 21.0534L36.4935 21.7467L37.2136 22.4401L36.4248 23.2114L35.7158 22.5072ZM13.9822 22.3231C14.2129 22.1097 14.4692 21.9246 14.7455 21.7717L14.7655 21.7619C14.9527 21.6612 15.1732 21.5669 15.4014 21.4922L15.4291 21.4846L15.7681 22.5137C15.6019 22.5614 15.8512 22.5549 15.6994 22.6362C15.3294 22.7792 15.0125 22.9406 14.7156 23.1302L14.7367 23.1172L13.9822 22.3231Z" stroke="#FFC90E" stroke-width="2" mask="url(#path-2-inside-1_161:9406)"/>
</svg>
