<?xml version="1.0" encoding="utf-8"?>
<!-- Generator: Adobe Illustrator 24.0.1, SVG Export Plug-In . SVG Version: 6.00 Build 0)  -->
<svg version="1.1" id="Camada_1" xmlns="http://www.w3.org/2000/svg" xmlns:xlink="http://www.w3.org/1999/xlink" x="0px" y="0px"
	 viewBox="0 0 50 50" style="enable-background:new 0 0 50 50;" xml:space="preserve">
<style type="text/css">
	.st0{fill:none;stroke:#FFC90E;}
</style>
<circle cx="-45.5" cy="-9.6" r="25"/>
<g>
	<path class="st0" d="M-60.2-15.5c-0.2,0.1-0.4,0.3-0.6,0.5c-0.1,0.2-0.2,0.4-0.2,0.7c0,0,0,0,0,0v13.7c0,0.3,0.3,0.4,0.5,0.4
		l7.4-3.3v-12.3c-0.4-0.7-0.7-1.4-1-2L-60.2-15.5z"/>
	<path class="st0" d="M-30.5-18.5l-7.4,3.3v14.7l7.1-2.8h0c0.2-0.1,0.4-0.3,0.6-0.5c0.1-0.2,0.2-0.4,0.2-0.7v-13.7
		C-30-18.4-30.3-18.6-30.5-18.5z"/>
	<path class="st0" d="M-42.3-19l-7.4,3.3V-1l7.1-2.8h0c0.2-0.1,0.4-0.3,0.6-0.5c0.1-0.2,0.2-0.4,0.2-0.7v-13.7
		C-41.8-18.9-42-19.1-42.3-19z"/>
</g>
<g>
	<circle cx="9.5" cy="-58.1" r="25"/>
	<path class="st0" d="M9.2-54.9L9.2-54.9c-0.9-1-2.4-2.9-3.8-4.9c-0.7-1-1.3-2-1.7-3c-0.4-1-0.7-1.8-0.7-2.5c0-3.5,2.9-6.4,6.5-6.4
		s6.5,2.9,6.5,6.4c0,0.7-0.3,1.5-0.7,2.5c-0.4,1-1.1,2-1.7,3c-1.3,2-2.9,3.9-3.8,4.9l0,0C9.6-54.7,9.3-54.7,9.2-54.9z M-5.2-59.9
		l-0.2-0.5L-5.2-59.9l6.1-2.4c0.3,0.7,0.6,1.3,1,2V-48l-7.4,3.3C-5.8-44.6-6-44.8-6-45v-13.7c0,0,0,0,0,0c0-0.2,0.1-0.5,0.2-0.7
		C-5.7-59.6-5.5-59.8-5.2-59.9z M24.2-47.7L24.2-47.7l-7.1,2.8v-14.7l7.4-3.3c0.3-0.1,0.5,0.1,0.5,0.4v13.7c0,0.2-0.1,0.5-0.2,0.7
		C24.6-47.9,24.4-47.8,24.2-47.7z M6.6-65.3c0,1.6,1.3,2.8,2.8,2.8s2.8-1.2,2.8-2.8c0-1.6-1.3-2.8-2.8-2.8S6.6-66.8,6.6-65.3z
		 M4.6-56.1c0.8,1.1,1.6,2.1,2.4,3C7.7-52.4,8.5-52,9.5-52s1.8-0.4,2.4-1.1c0.8-0.9,1.6-1.9,2.4-3v11.2L4.6-48V-56.1z"/>
</g>
</svg>
