<svg width="50" height="50" viewBox="0 0 50 50" fill="none" xmlns="http://www.w3.org/2000/svg">
<circle cx="25" cy="25" r="25" fill="black"/>
<path d="M12.8627 20.454L13.1428 20.7873C13.9834 21.7875 15.0136 22.4924 16.2421 22.9073C17.3706 22.2563 18.8982 21.3828 20.8245 20.287C22.746 19.194 24.27 18.3278 25.3966 17.6886C25.6277 16.4053 25.5159 15.1823 25.0663 14.0089L24.9081 13.5961L25.2985 13.3885L25.5098 13.2762C25.5425 13.2514 25.5583 13.2254 25.5685 13.1848C25.58 13.1394 25.5743 13.1194 25.5589 13.0934L25.5547 13.0862L25.5547 13.0862L24.9825 12.0799C24.9516 12.0385 24.9132 12.0106 24.8528 11.9914C24.8179 11.9803 24.7845 11.9778 24.7328 11.9997L24.5584 12.1093L24.187 12.3427L23.9072 12.0048C22.84 10.7156 21.4795 9.92308 19.8055 9.61949C18.135 9.31653 16.5502 9.58887 15.0316 10.4456L12.8627 20.454ZM12.8627 20.454L12.494 20.6856M12.8627 20.454L12.494 20.6856M12.494 20.6856L12.3037 20.8052C12.277 20.8195 12.252 20.8244 12.2047 20.8127C12.1578 20.8011 12.13 20.7829 12.1047 20.7488L11.5126 19.739L11.5118 19.7376M12.494 20.6856L11.5118 19.7376M11.5118 19.7376C11.5033 19.7233 11.4913 19.7023 11.5092 19.6358C11.5261 19.5735 11.55 19.5412 11.5804 19.5179L11.7563 19.4232L12.1454 19.2136M11.5118 19.7376L12.1454 19.2136M12.1454 19.2136L11.9852 18.8017M12.1454 19.2136L11.9852 18.8017M11.9852 18.8017C11.3852 17.2592 11.3696 15.699 11.9442 14.098M11.9852 18.8017L11.9442 14.098M11.9442 14.098C12.5177 12.5001 13.5415 11.288 15.0315 10.4457L11.9442 14.098ZM30.9022 38.1181L30.6525 37.6451L30.1974 37.926L29.9054 38.1061L29.8992 38.11L29.8931 38.114C29.5082 38.3674 29.2321 38.4273 29.0411 38.4045C28.8825 38.3856 28.6442 38.265 28.3405 37.8695L18.4625 24.6327L20.5156 23.4636L21.7623 25.5954L21.7678 25.6048L21.7737 25.6139C21.918 25.8378 22.1248 26.0041 22.3876 26.0831C22.673 26.1689 22.9534 26.1201 23.1953 25.9725L23.897 25.5817L24.6087 25.1853L24.6088 25.1854L24.6202 25.1786C24.864 25.0342 25.0191 24.8111 25.0927 24.5515C25.1682 24.2853 25.1472 24.0055 24.9956 23.7537L23.7395 21.6169L25.7925 20.4479L32.4662 35.5269L32.4743 35.5453L32.4839 35.563C32.6368 35.8449 32.6638 36.0354 32.647 36.157C32.6225 36.3349 32.5634 36.4432 32.4924 36.5159C32.3796 36.6316 32.1802 36.7823 31.868 36.965L31.8679 36.9649L31.8579 36.9711L31.7119 37.0611L31.2859 37.3241L31.5494 37.7498C31.965 38.4213 32.3856 38.9547 32.8163 39.3251C33.2473 39.6958 33.7238 39.9325 34.2372 39.9325C35.2238 39.9325 36.1031 39.5991 36.8553 38.945C37.6122 38.2867 38.0217 37.4763 38.0217 36.5317C38.0217 35.8362 37.8274 34.9782 37.473 33.9775C37.1209 32.9835 36.7595 32.1627 36.3856 31.5254C36.2349 31.2591 36.1411 31.0209 36.0935 30.8096C36.0415 30.5783 36.0524 30.454 36.0678 30.4007C36.0711 30.3894 36.0742 30.3803 36.077 30.3731C36.1131 30.3814 36.1792 30.4057 36.2789 30.4685C36.4538 30.5787 36.6762 30.8256 36.9235 31.2871C36.9478 31.3429 36.9814 31.4082 37.0081 31.4599L37.0088 31.4613C37.0562 31.5534 37.123 31.68 37.2086 31.8399C37.3785 32.1575 37.4963 32.3845 37.5647 32.5253C37.6306 32.6608 37.7382 32.9069 37.8902 33.2731C38.0358 33.624 38.1394 33.9276 38.2048 34.1861C38.2729 34.4551 38.3401 34.7937 38.4056 35.205C38.4684 35.5997 38.4998 35.9938 38.4997 36.3876L38.4998 36.3922C38.5108 37.5747 38.1234 38.5395 37.3413 39.3224C36.5622 40.1022 35.5716 40.5 34.3284 40.5C33.6545 40.5 33.0245 40.3044 32.4279 39.9011C31.8323 39.4985 31.3209 38.9115 30.9022 38.1181Z" stroke="#FFC90E"/>
</svg>
