<svg xmlns="http://www.w3.org/2000/svg" viewBox="0 0 264.19 19.81"><title>Ativo 36</title><g id="Camada_2" data-name="Camada 2"><g id="Camada_1-2" data-name="Camada 1"><path d="M198.12,15c-1.83,3.59-1.67,3.51-7.35,2.17a13.15,13.15,0,0,1-7.18-4L180.49,10l3.51.91c3.85,1.09,4.93.26,5-3.59.08-1.92.16-1.84,1.67.92,2.51,4.85,3.67,5.43,6.68,3.26S200.55,10.36,198.12,15Z"/><path d="M147.91,19.81h-7.77l5.35-3.51,5.34-3.51,2.34,2.84a14.12,14.12,0,0,1,2.43,3.51C155.6,19.47,152.09,19.81,147.91,19.81Z"/><path d="M256,13.29a8.27,8.27,0,0,1-5.35,4c-3.09.83-3.42.75-7-2.26-3.76-3-3.92-4.68-.33-2.75,2.17,1.17,3.76.08,4.59-3.1l.51-2.25,2,2.5c1.84,2.26,2.09,2.34,4.68,1.43,1.5-.59,2.84-1,2.92-.84A17,17,0,0,1,256,13.29Z"/><path d="M226,11.78c-3-.5-3.34-.25-5,2.26-1.76,2.76-1.84,2.76-1.84.67A7.19,7.19,0,0,0,218,11.12c-1-1.42-1.25-1.42-4.18.33l-3,1.84,1.33-4.1a20.89,20.89,0,0,1,1.92-4.68c.34-.41,2.76-1,5.35-1.33l4.68-.67,2.51,4.34a28.49,28.49,0,0,1,2.5,4.93C229.12,12,227.7,12,226,11.78Z"/><path d="M217.09,1.42A6.78,6.78,0,0,0,213,2.68c-1.51,1.5-5.18,12-4.43,12.78.33.25,2.17-.33,4.18-1.34l3.67-1.75.59,3.34c.33,1.84.42,3.51.17,3.76s-4.52.25-9.61.17l-9.19-.25,2.34-5.18c4.42-9.78,4-10.7-2.51-5.94-2,1.51-3.76,2.34-3.93,1.93-.75-2.09-5.35-8.78-6.1-8.78-.42,0-1,1.84-1.33,4.1l-.51,4.09L181.66,8c-2.5-.83-4.76-1.58-4.93-1.58-2.17,0,6.27,10.27,9.61,11.53a26.7,26.7,0,0,0,3.93,1.25c.92.25-6,.42-15.37.5-14.46.09-16.88-.08-16.55-1.08.25-.67.92-2.76,1.42-4.6l.92-3.43L165,13.54A28,28,0,0,0,170,16.46c1.33,0,.58-2.75-2.68-9.19L164,.59h28c15.38,0,28,.16,28,.42S218.68,1.42,217.09,1.42Z"/><path d="M166.29,11.78c-.58-.33-2.09-1.33-3.34-2.17-2.93-2-3.68-1.5-5.1,3.18l-1.09,3.84-2.33-3c-1.26-1.67-2.68-3-3.26-3a12.15,12.15,0,0,0-4.1,2.09,17.37,17.37,0,0,1-3.59,2.09c-.25,0,1-2.59,2.67-5.76,3.43-6.27,4.26-6.77,12.54-6.77,3.51,0,3.59.08,6.1,5.1C166.21,10.2,166.88,12.2,166.29,11.78Z"/><path d="M148.16,1.84c-1.76,1.76-9.28,16.46-8.86,17.21.34.42-1.84.76-4.93.76h-5.43l2.84-4.93c3.59-6.1,3.68-7.19.67-6.44-5,1.26-5.51,1.09-6.52-2.17-1.42-5.1-2.67-5.68-4.17-1.84-.76,1.76-1.59,3.93-1.93,4.76-.58,1.42-1.17,1.17-5.59-2.25-5-3.93-6.27-4.51-6.27-3,0,1.67,5.26,14.62,6.18,15.21.5.33-4.84.67-11.86.67H89.42l2.67-3.35c3.43-4.34,3.51-4.34,7-2.92a16.11,16.11,0,0,0,4.35,1.25c1.75,0,1.17-2.42-2.09-9.27L99,.59h24.9c13.78,0,25,.08,25,.25A2.63,2.63,0,0,1,148.16,1.84Z"/><path d="M129.53,14.79c-1,1.59-1.93,3.09-2,3.26a36.51,36.51,0,0,1-6.52-.33l-6.26-.59-1.17-3.42c-.67-1.93-1.51-4.27-1.93-5.18-.5-1.26.34-.84,3.18,1.42,2.17,1.75,4.26,3.17,4.85,3.17s1.58-1.59,2.5-3.59L123.68,6l.67,2.76c.66,3.25,2.17,4.09,5,2.84C131.78,10.45,131.87,11,129.53,14.79Z"/><path d="M101.62,12.29A25.29,25.29,0,0,1,98.11,11L95,9.7l-2.34,2.75-2.34,2.76.5-3.09c1.09-5.77.17-6.18-5-2.34-2.51,1.84-4.6,3.17-4.6,2.92a28.77,28.77,0,0,1,2.09-4.51l2-4.09,6-.59c3.26-.33,6.18-.25,6.6.09C98.86,4.6,102.12,12.29,101.62,12.29Z"/><path d="M92,1.26c-7.35.41-7.69.66-11.45,8-1.92,3.76-3.51,7.18-3.51,7.43,0,1.26,2.09.42,6.44-2.75,2.59-1.84,4.84-3.18,5-3a16.2,16.2,0,0,1-.25,4.59l-.59,4.27H62.77L67,12C69.37,7.52,71,3.85,70.45,3.6s-2.75.25-5.09,1.17-4.43,1.67-4.6,1.67c-.58,0-3.09-5.1-2.67-5.52.16-.17,8.6-.25,18.63-.08S93.68,1.09,92,1.26Z"/><path d="M64.94,11.7a44.05,44.05,0,0,1-3.51,5.68c-.5.5-2.93.59-6.44.25l-5.59-.58-3-4.6C42,5.6,42,5,46.39,7.94c5.51,3.84,5.6,3.76,6.93-3.43.76-4.59,1.84-4.59,3.85.17,1.84,4.6,2.75,4.93,6.6,2.93,1.42-.67,2.76-1.17,3.09-1S66.27,9,64.94,11.7Z"/><path d="M27.34,13.46c-.5-.26-1.34,1.17-1.76,3l-.92,3.35h23.9l-5.35-8.69c-3-4.77-5.43-9.11-5.43-9.61S34.69.59,28.17.59H18.56c0,.25-5.26-.25-5.26-.25A4.26,4.26,0,0,1,11.36,0c-.93.91-1.87,1.8-2.87,2.63a61.49,61.49,0,0,1-7.18,4.8C.87,7.86.43,8.28,0,8.72c.08,2.75.15,5.5.16,8.25a4.62,4.62,0,0,1-.07.93,4.16,4.16,0,0,1,1,1.91H11V13.12c0-6.18.17-6.77,1.93-7.44,2.34-.91,15-2.59,15.79-2.08,1.34.83,8.94,12.36,8.52,13S34.86,16.46,27.34,13.46Z"/><path d="M31.35,12.87c-5.1-2.59-6.1-2.59-7,.25l-.92,2.59-1.59-2.59-1.58-2.59-3.76,3.09c-3.76,3-3.76,3-3.76.92a33.49,33.49,0,0,1,.5-4.59c.58-2.68,0-2.51,11.44-3.93,3.35-.5,3.6-.34,5.6,2.67C34,14.37,34,14.21,31.35,12.87Z"/><path d="M252.35,19.22c-.44.07,3.92.15,11.62.23a23.09,23.09,0,0,1-.06-5.7c.11-1.17.22-2.23.27-3.3A5.6,5.6,0,0,1,264,9.34,58.08,58.08,0,0,1,264.19,2c-.06-.38-.12-.76-.17-1.13a1.77,1.77,0,0,1,0-.23H225.7l3.51,6.68c2,3.68,3.34,6.94,3,7.27s-2.26.17-4.35-.33c-4-.92-4.43-.67-7.44,4.51-.5.83,2.26,1.09,12.45,1.09h13l-6.35-5.6c-3.51-3-6-5.85-5.68-6.19s2.92,0,5.68.84,5.26,1.42,5.6,1.25a8.31,8.31,0,0,0,1.08-2.84c.84-3.76,2-3.84,4.77-.5l2.42,3,3.26-1.67c6.26-3.18,6.6-1.67,1.25,5.6C255.78,16.8,253.52,19,252.35,19.22Z"/></g></g></svg>