<svg width="50" height="50" viewBox="0 0 50 50" fill="none" xmlns="http://www.w3.org/2000/svg">
<circle cx="25" cy="25" r="25" fill="black"/>
<path d="M39.0252 20.1789C38.1984 19.9862 37.3799 20.0919 36.589 20.4794C35.6478 20.9406 34.9799 21.6808 34.6223 22.6799C34.2632 23.683 34.3224 24.676 34.7527 25.6307L34.7526 25.6307L34.756 25.638C35.1374 26.4491 35.715 27.0489 36.4852 27.4359L35.1353 31.2832L11.2245 22.5642L12.5391 18.7827C13.3623 18.9729 14.1773 18.8673 14.9648 18.4824C15.9154 18.0349 16.5636 17.289 16.9187 16.2969C17.2775 15.2946 17.2194 14.2999 16.7702 13.3425C16.5624 12.8826 16.265 12.4698 15.8955 12.1294C15.6487 11.902 15.3732 11.7101 15.0768 11.5585L16.4399 7.64345L40.3646 16.3617L39.0252 20.1789ZM18.3201 13.0972L16.0603 19.4278C16.0602 19.4282 16.0601 19.4285 16.0599 19.4289C15.5738 20.7746 16.2577 22.2766 17.5783 22.7617C17.5786 22.7618 17.579 22.7619 17.5793 22.762L29.9852 27.376L29.9883 27.3771C30.2609 27.4765 30.5505 27.5421 30.869 27.5421C31.9386 27.5421 32.9214 26.8526 33.2721 25.8076L35.5293 19.484C35.7758 18.8301 35.7308 18.1207 35.4487 17.5037C35.1635 16.8798 34.6532 16.4009 34.0227 16.1518L34.0228 16.1517L34.0127 16.148L21.6047 11.5501L21.6032 11.5495C20.2784 11.0636 18.7918 11.7993 18.3211 13.0945L18.3201 13.0972ZM20.9832 13.2818L33.366 17.8764C33.3663 17.8765 33.3666 17.8766 33.3669 17.8768C33.5488 17.9454 33.7007 18.0834 33.7974 18.2751C33.8761 18.4623 33.8836 18.6632 33.8142 18.8555L33.8136 18.8572L31.5531 25.1898L31.553 25.1898L31.5499 25.199C31.4249 25.5721 30.9762 25.7832 30.616 25.6478L30.6145 25.6472L18.223 21.0325L18.2219 21.0321C18.04 20.9648 17.8885 20.8254 17.8038 20.6408C17.7189 20.4561 17.7092 20.2438 17.7772 20.0514C17.7773 20.0513 17.7773 20.0511 17.7774 20.051L20.0374 13.7197L20.0375 13.7197L20.0402 13.7116C20.1355 13.4296 20.4211 13.2263 20.7215 13.2263C20.7887 13.2263 20.8593 13.2399 20.9832 13.2818ZM10.6837 27.9217C10.0694 27.2946 9.3367 26.9159 8.5 26.8091V22.6579H9.03248L8.79753 23.3431L8.6382 23.8078L9.09999 23.9753L12.8516 25.3363C12.3545 25.8023 12.0375 26.4621 12.0375 27.2105V33.9474C12.0375 35.3759 13.1757 36.5526 14.6 36.5526H27.8C29.2243 36.5526 30.3625 35.3759 30.3625 33.9474V31.7174L30.8272 31.8888C31.0722 32.6026 31.5008 33.1988 32.0977 33.6525C32.6331 34.073 33.2366 34.3329 33.9 34.4172V38.5H8.5V34.4836C9.33669 34.3775 10.0802 34.0012 10.6837 33.371C11.4213 32.6351 11.8 31.6996 11.8 30.6463C11.8 29.587 11.4172 28.6704 10.6837 27.9217ZM13.8625 33.9474V27.2105C13.8625 26.7864 14.2093 26.4474 14.6 26.4474H15.8812L28.5375 31.0635V33.9474C28.5375 34.3715 28.1907 34.7105 27.8 34.7105H14.6C14.2093 34.7105 13.8625 34.3715 13.8625 33.9474Z" stroke="#E7B300"/>
</svg>
