<svg width="50" height="50" viewBox="0 0 50 50" fill="none" xmlns="http://www.w3.org/2000/svg">
<circle cx="25" cy="25" r="25" fill="black"/>
<path d="M30.186 21.5601C31.1047 21.5601 31.8494 22.3047 31.8494 23.2144C31.8494 24.1243 31.1047 24.8688 30.186 24.8688C29.2675 24.8688 28.5228 24.1244 28.5228 23.2144C28.5228 22.3047 29.2675 21.5601 30.186 21.5601ZM24.5839 12.5H35.5635C38.3142 12.5 40.5494 14.7291 40.5494 17.4637V18.486H33.357C32.4496 17.8801 31.3587 17.5247 30.186 17.5247C29.0134 17.5247 27.9226 17.8801 27.0152 18.486H19.5979V17.4637C19.5979 14.7291 21.8331 12.5 24.5839 12.5ZM37.1757 18.3035C37.7853 18.3035 38.2852 17.8083 38.2852 17.1964V15.3205C38.2852 14.7086 37.7853 14.2134 37.1757 14.2134H35.2923C34.6826 14.2134 34.1827 14.7087 34.1827 15.3205V17.1964C34.1827 17.8083 34.6827 18.3035 35.2923 18.3035H37.1757ZM30.186 28.9041C33.3335 28.9041 35.8972 26.3543 35.8972 23.2144C35.8972 22.6208 35.8049 22.0481 35.6345 21.5096H40.5495V28.4879C40.5495 31.2227 38.3142 33.4516 35.5635 33.4516H24.5839C21.8331 33.4516 19.5979 31.2227 19.5979 28.4879V21.5096H24.7377C24.5673 22.0481 24.475 22.6208 24.475 23.2144C24.475 26.3543 27.0384 28.9041 30.186 28.9041Z" stroke="#FFC90E"/>
<path d="M17.795 24.8046C17.795 26.5083 16.4139 27.8894 14.7101 27.8894C13.0064 27.8894 11.6252 26.5083 11.6252 24.8046C11.6252 23.1008 13.0064 21.7197 14.7101 21.7197C16.4139 21.7197 17.795 23.1008 17.795 24.8046Z" stroke="#FFC90E"/>
<path d="M14.9026 30.2982L14.9243 30.7977C15.9015 30.7554 16.8771 30.9131 17.7912 31.2613C18.6958 31.6057 19.5213 32.1294 20.2182 32.8008L20.2812 32.8795V37.7594C20.2788 37.8576 20.2574 37.9545 20.218 38.0447C20.1781 38.136 20.1206 38.2187 20.0488 38.2878C19.9769 38.357 19.8921 38.4113 19.7993 38.4477C19.7065 38.484 19.6074 38.5018 19.5077 38.4999L19.5077 38.4998H19.498H10.2832V38.4997L10.2735 38.4999C10.1738 38.5018 10.0747 38.484 9.98191 38.4477C9.88907 38.4113 9.80431 38.357 9.73247 38.2878C9.66063 38.2187 9.60311 38.136 9.56321 38.0447C9.52386 37.9545 9.5024 37.8576 9.5 37.7594V32.8788L9.56064 32.8109C10.2645 32.137 11.0967 31.6115 12.0078 31.2655C12.9246 30.9173 13.9025 30.7582 14.8825 30.7978L14.9026 30.2982Z" stroke="#FFC90E"/>
</svg>
