<svg width="50" height="50" viewBox="0 0 50 50" fill="none" xmlns="http://www.w3.org/2000/svg">
<circle cx="25" cy="25" r="25" fill="black"/>
<path d="M31.7559 22.3562H31.7573C32.3917 22.3579 33.0201 22.2338 33.6062 21.991C34.1922 21.7482 34.7243 21.3916 35.1716 20.9417L35.1727 20.9406L40.3035 15.8131C40.3036 15.8131 40.3036 15.813 40.3037 15.813C40.5335 15.583 40.5388 15.2259 40.3435 15.0107L40.3434 15.0106C40.2919 14.9538 40.2293 14.908 40.1596 14.8761C40.0899 14.8442 40.0144 14.8268 39.9377 14.825C39.861 14.8231 39.7848 14.8368 39.7136 14.8654C39.6424 14.8939 39.5777 14.9365 39.5235 14.9908L39.5232 14.9911L34.95 19.5609L34.9499 19.561C34.7026 19.808 34.3674 19.9468 34.0179 19.9468C33.6683 19.9468 33.3331 19.808 33.0858 19.561C32.5577 19.0339 32.6021 18.1784 33.1022 17.6782L37.6554 13.1251C37.7096 13.0708 37.7523 13.0062 37.7807 12.935C37.8092 12.8639 37.8229 12.7877 37.8211 12.711C37.8192 12.6344 37.8018 12.559 37.77 12.4893C37.7381 12.4196 37.6925 12.3572 37.6358 12.3057C37.5355 12.2147 37.4048 12.1647 37.2694 12.1654L37.267 12.1654C37.1044 12.1655 36.9484 12.2303 36.8334 12.3453L36.8332 12.3455L32.284 16.8941L32.2839 16.8943C32.0365 17.1413 31.7013 17.28 31.3518 17.28C31.0023 17.28 30.667 17.1413 30.4197 16.8943L30.4195 16.894C29.8929 16.3674 29.9355 15.5122 30.4362 15.0115L30.4362 15.0114L34.9893 10.4596C35.0435 10.4054 35.0862 10.3408 35.1146 10.2696C35.1431 10.1985 35.1568 10.1222 35.155 10.0456C35.1531 9.969 35.1357 9.89354 35.1039 9.82383C35.072 9.75413 35.0263 9.69162 34.9695 9.6401C34.8693 9.54925 34.7386 9.49926 34.6034 9.50001L34.6012 9.50002C34.4384 9.50021 34.2823 9.56497 34.1672 9.68009L29.0396 14.8077L29.0386 14.8087C28.5887 15.2561 28.232 15.7883 27.9892 16.3744C27.7464 16.9606 27.6223 17.5891 27.6241 18.2236L27.6241 18.225L27.6241 18.7731M31.7559 22.3562L27.6241 18.7731M31.7559 22.3562H31.2063C31.2062 22.3562 31.2062 22.3562 31.2062 22.3562M31.7559 22.3562L26.0453 33.8271M27.6241 18.7731L27.6241 18.7734M27.6241 18.7731C27.6241 18.7732 27.6241 18.7733 27.6241 18.7734M27.6241 18.7734C27.6242 18.9793 27.5837 19.1831 27.505 19.3733C27.4263 19.5635 27.3108 19.7364 27.1652 19.8819M27.6241 18.7734L27.1652 19.8819M27.1652 19.8819C27.1651 19.882 27.1651 19.882 27.1651 19.882C27.1651 19.8821 27.165 19.8821 27.165 19.8821L24.7924 22.2553C24.7924 22.2554 24.7923 22.2554 24.7923 22.2555C24.7211 22.3267 24.6366 22.3832 24.5436 22.4217C24.4506 22.4603 24.3508 22.4802 24.2501 22.4802C24.1494 22.4802 24.0496 22.4603 23.9566 22.4217C23.8636 22.3832 23.7791 22.3267 23.708 22.2555C23.7079 22.2555 23.7078 22.2554 23.7078 22.2553L12.1614 10.7083L12.1612 10.7081C12.0554 10.6021 11.9119 10.5424 11.7621 10.542C11.6124 10.5416 11.4686 10.6005 11.3622 10.7059L27.1652 19.8819ZM26.0453 33.8271L32.0458 39.9289L32.0518 39.9355M26.0453 33.8271C25.4556 33.23 25.1258 32.424 25.1277 31.5848V31.2156C25.1269 30.9358 25.0169 30.6673 24.8212 30.4673L24.0622 29.7663M26.0453 33.8271L23.3405 29.4831C23.6082 29.4831 23.8659 29.5843 24.0622 29.7663M32.0518 39.9355C32.7178 40.6015 33.621 40.9755 34.5629 40.9755C35.5047 40.9754 36.4079 40.6012 37.0738 39.9352C37.7397 39.2692 38.1138 38.366 38.1137 37.4242C38.1136 36.4823 37.7394 35.5791 37.0734 34.9132L28.079 25.9188C28.0542 25.894 28.0345 25.8646 28.0211 25.8323C28.0077 25.7999 28.0008 25.7652 28.0008 25.7302C28.0008 25.6952 28.0077 25.6605 28.0211 25.6281C28.0345 25.5958 28.0542 25.5664 28.079 25.5416M32.0518 39.9355L32.4235 39.6011L32.4175 39.5944L32.4143 39.5909M32.0518 39.9355L32.1721 39.8152L32.4053 39.582C32.4083 39.585 32.4113 39.5879 32.4143 39.5909M28.079 25.5416L30.4519 23.1687M28.079 25.5416L27.7256 25.1879M28.079 25.5416L27.7254 25.1881L27.7256 25.1879M30.4519 23.1687C30.5509 23.0696 30.6685 22.991 30.7979 22.9374C30.9274 22.8838 31.0661 22.8562 31.2062 22.8562V22.3562M30.4519 23.1687L30.0983 22.8152M30.4519 23.1687L30.0982 22.8153L27.7256 25.1879M31.2062 22.3562C31.0004 22.3562 30.7967 22.3967 30.6065 22.4755C30.4165 22.5542 30.2438 22.6697 30.0983 22.8152M31.2062 22.3562L30.0983 22.8152M30.0983 22.8152L22.9429 29.0347C23.0723 29.0008 23.2054 28.9835 23.3391 28.9831L23.3406 28.9831C23.734 28.9832 24.1129 29.1317 24.4014 29.399L24.0622 29.7663M27.7256 25.1879C27.6544 25.2591 27.5978 25.3436 27.5592 25.4367C27.5207 25.5297 27.5008 25.6295 27.5008 25.7302C27.5008 25.8309 27.5207 25.9307 27.5592 26.0237C27.5978 26.1167 27.6543 26.2012 27.7254 26.2723L28.0773 25.9205L27.7256 26.2725L36.7199 35.2668L36.7199 35.2668C37.2921 35.839 37.6136 36.615 37.6137 37.4242C37.6138 38.2334 37.2924 39.0095 36.7202 39.5817C36.148 40.1539 35.372 40.4754 34.5628 40.4755C33.7579 40.4755 32.9857 40.1575 32.4143 39.5909M32.4143 39.5909L32.4101 39.5862L32.4023 39.5783L26.4018 33.4765L26.401 33.4757C25.904 32.9725 25.6261 32.2932 25.6277 31.5859V31.5848L25.6277 31.2156L25.6277 31.2142C25.6265 30.8041 25.4654 30.4106 25.1785 30.1176L25.1697 30.1086L25.1604 30.1L24.4022 29.3997L24.0622 29.7663M22.9426 29.0347C22.6314 29.1161 22.311 29.1572 21.9894 29.157H21.9892C20.9785 29.1569 20.009 28.7559 19.2935 28.0421L22.9426 29.0347ZM35.3056 9.26989C35.1127 9.09488 34.8611 8.99858 34.6006 9.00002L35.3056 9.26989ZM19.2931 28.0417L13.5995 22.3481L13.5992 22.3478C11.3327 20.0845 9.95541 17.0346 9.96169 14.4347V14.4335C9.96169 12.8724 10.4632 11.5966 11.3622 10.7059L19.2931 28.0417Z" stroke="#FFC90E"/>
<path d="M17.0805 30.2605L17.0818 30.2618C18.3867 31.557 20.1496 32.2856 21.9882 32.2894L21.9893 31.7894L21.992 32.2894C22.0722 32.2889 22.1524 32.2871 22.2325 32.2839L15.014 39.5369L15.0136 39.5372C14.7143 39.8385 14.3582 40.0775 13.9659 40.2402C13.5736 40.4029 13.1529 40.4861 12.7282 40.4851H12.7269C11.4948 40.4851 10.3621 39.7981 9.7718 38.5893L9.77141 38.5885C9.7426 38.5298 9.71757 38.4693 9.69645 38.4074L9.69612 38.4065C9.25727 37.1285 9.57506 35.8439 10.4466 34.9721C10.4467 34.9719 10.4469 34.9718 10.447 34.9716L16.1101 29.3378L16.1106 29.3373C16.1168 29.3311 16.1252 29.3277 16.134 29.3277C16.1427 29.3277 16.1511 29.3311 16.1573 29.3372C16.1573 29.3373 16.1573 29.3373 16.1574 29.3373L17.0805 30.2605Z" stroke="#FFC90E"/>
</svg>
