<svg width="50" height="50" viewBox="0 0 50 50" fill="none" xmlns="http://www.w3.org/2000/svg">
<circle cx="25" cy="25" r="25" fill="black"/>
<path d="M13.1875 36.3179V36.0952L13.022 35.9462C12.0901 35.1076 11.5 33.909 11.5 32.5789V15.7368C11.5 14.3531 11.8526 13.3055 12.4601 12.4979C13.0712 11.6854 13.9713 11.0749 15.1338 10.6241C17.4792 9.71439 20.7672 9.5 24.5 9.5C28.2328 9.5 31.5208 9.71439 33.8662 10.6241C35.0287 11.0749 35.9288 11.6854 36.5399 12.4979C37.1474 13.3055 37.5 14.3531 37.5 15.7368V32.5789C37.5 33.909 36.9099 35.1076 35.978 35.9462L35.8125 36.0952V36.3179V38.4737C35.8125 39.5924 34.892 40.5 33.7812 40.5C32.658 40.5 31.75 39.5798 31.75 38.4737V37.6316V37.1316H31.25H17.75H17.25V37.6316V38.4737C17.25 39.5945 16.3442 40.5 15.2188 40.5C14.0933 40.5 13.1875 39.5945 13.1875 38.4737V36.3179ZM34.625 24.6579H35.125V24.1579V15.7368V15.2368H34.625H14.375H13.875V15.7368V24.1579V24.6579H14.375H34.625ZM13.875 31.7368C13.875 33.4118 15.2304 34.7632 16.9062 34.7632C18.5821 34.7632 19.9375 33.4118 19.9375 31.7368C19.9375 30.0619 18.5821 28.7105 16.9062 28.7105C15.2304 28.7105 13.875 30.0619 13.875 31.7368ZM29.0625 31.7368C29.0625 33.4118 30.4179 34.7632 32.0938 34.7632C33.7696 34.7632 35.125 33.4118 35.125 31.7368C35.125 30.0619 33.7696 28.7105 32.0938 28.7105C30.4179 28.7105 29.0625 30.0619 29.0625 31.7368Z" stroke="#FFC90E"/>
</svg>
