<svg width="50" height="50" viewBox="0 0 50 50" fill="none" xmlns="http://www.w3.org/2000/svg">
<circle cx="25" cy="25" r="25" fill="black"/>
<path d="M7.57006 22.5269L7.40495 23.3466C8.05584 22.6963 8.84313 22.3801 9.76682 22.3982C10.2598 22.4072 10.6762 22.5133 11.016 22.7166C11.3605 22.9198 11.5974 23.2066 11.7267 23.5769C12.4541 22.773 13.3132 22.3801 14.3039 22.3982C15.0792 22.4162 15.6512 22.6624 16.0197 23.1366C16.3882 23.6108 16.5246 24.2476 16.4289 25.047L15.5746 29.8637H14.2824L15.1295 25.0335C15.1582 24.7986 15.1582 24.5841 15.1295 24.3899C15.0386 23.7757 14.6126 23.4618 13.8516 23.4482C13.3778 23.4392 12.9471 23.5792 12.5594 23.8683C12.1766 24.1528 11.9301 24.5276 11.82 24.9928L10.937 29.8637H9.63042L10.4919 25.0402C10.5541 24.5389 10.4727 24.1528 10.2478 23.8818C10.0277 23.6108 9.68306 23.4708 9.21404 23.4618C8.40521 23.4437 7.7615 23.7915 7.2829 24.5051L6.29939 29.8637H5L6.34964 22.5337L7.57006 22.5269Z" fill="#FFC90E"/>
<path d="M22.5166 29.1388C21.9088 29.7305 21.1359 30.0173 20.1978 29.9992C19.456 29.9811 18.9056 29.7305 18.5467 29.2472C18.1925 28.764 18.0609 28.1046 18.1518 27.2691L18.9846 22.5337H20.284L19.444 27.2894C19.4201 27.4881 19.4153 27.6823 19.4297 27.872C19.4536 28.1972 19.5565 28.4523 19.7384 28.6375C19.9202 28.8227 20.1739 28.922 20.4993 28.9356C21.4278 28.9627 22.1457 28.6082 22.653 27.872L23.6294 22.5337H24.9287L23.5791 29.8637H22.3515L22.5166 29.1388Z" fill="#FFC90E"/>
<path d="M33.6344 29.8637H32.2489V25.3045H26.9795V29.8637H25.6012V20H26.9795V24.2409H32.2489V20H33.6344V29.8637Z" fill="#FFC90E"/>
<path d="M40.5136 29.8637H39.128L33.8659 22.2627V29.8637H32.4803V20H33.8659L39.1424 27.6349V20H40.5136V29.8637Z" fill="#FFC90E"/>
<path d="M45.2677 25.3045H40.7378V28.8001H46V29.8637H39.3595V20H45.9282V21.0704H40.7378V24.2409H45.2677V25.3045Z" fill="#FFC90E"/>
</svg>
