<svg xmlns="http://www.w3.org/2000/svg" viewBox="0 0 50 50"><defs><style>.cls-1{fill:none;stroke:#ffc90e;}</style></defs><title>Ativo 2</title><g id="Camada_2" data-name="Camada 2"><g id="Camada_1-2" data-name="Camada 1"><circle cx="25" cy="25" r="25"/><path class="cls-1" d="M10.3,19.15a1.33,1.33,0,0,0-.58.46,1.26,1.26,0,0,0-.22.7h0V34a.39.39,0,0,0,.53.35l7.36-3.3V18.76a16.83,16.83,0,0,1-1-2Z"/><path class="cls-1" d="M40,16.15l-7.36,3.3V34.14l7.09-2.79h0a1.2,1.2,0,0,0,.58-.46,1.26,1.26,0,0,0,.22-.7V16.5A.39.39,0,0,0,40,16.15Z"/><path class="cls-1" d="M28.23,15.65,20.87,19V33.64L28,30.85h0a1.33,1.33,0,0,0,.58-.46,1.19,1.19,0,0,0,.22-.7V16A.39.39,0,0,0,28.23,15.65Z"/></g></g></svg>