<svg width="50" height="50" viewBox="0 0 50 50" fill="none" xmlns="http://www.w3.org/2000/svg">
<circle cx="25" cy="25" r="25" fill="black"/>
<path d="M9.5 25C9.5 16.4393 16.4393 9.5 25 9.5C33.5607 9.5 40.5 16.4393 40.5 25C40.5 33.5607 33.5607 40.5 25 40.5C16.4393 40.5 9.5 33.5607 9.5 25ZM27.1 18.6C27.1 18.043 26.8787 17.5089 26.4849 17.1151C26.0911 16.7213 25.557 16.5 25 16.5C24.443 16.5 23.9089 16.7213 23.5151 17.1151C23.1213 17.5089 22.9 18.043 22.9 18.6C22.9 19.157 23.1213 19.6911 23.5151 20.0849C23.9089 20.4788 24.443 20.7 25 20.7C25.557 20.7 26.0911 20.4788 26.4849 20.0849C26.8787 19.6911 27.1 19.157 27.1 18.6ZM25 33.5C25.557 33.5 26.0911 33.2788 26.4849 32.8849C26.8787 32.4911 27.1 31.957 27.1 31.4V25C27.1 24.443 26.8787 23.9089 26.4849 23.5151C26.0911 23.1213 25.557 22.9 25 22.9C24.443 22.9 23.9089 23.1213 23.5151 23.5151C23.1213 23.9089 22.9 24.443 22.9 25V31.4C22.9 31.957 23.1213 32.4911 23.5151 32.8849C23.9089 33.2788 24.443 33.5 25 33.5Z" stroke="#FFC90E"/>
</svg>
