<svg width="50" height="50" viewBox="0 0 50 50" fill="none" xmlns="http://www.w3.org/2000/svg">
<circle cx="25" cy="25" r="25" fill="black"/>
<path d="M35.25 24.0375H35.2581L35.2661 24.0372C37.6835 23.9593 40.0258 24.6629 41.7547 25.7118C42.6185 26.2359 43.3141 26.8371 43.7889 27.4533C44.2653 28.0714 44.5 28.6777 44.5 29.225C44.5 29.2853 44.4739 29.3853 44.3192 29.5292C44.1609 29.6764 43.9055 29.8318 43.5466 29.9829C42.9049 30.2531 42.0268 30.4711 41.0441 30.6286C39.5493 28.0375 36.8454 26.0499 33.7471 24.6326C33.7818 24.5888 33.817 24.5447 33.8529 24.4998L33.8573 24.4944C33.9699 24.3537 34.0892 24.2045 34.2107 24.0375H35.25ZM16.7824 23.875L17.2794 24.6205C14.17 26.0385 11.455 28.0302 9.95592 30.6286C8.97321 30.4711 8.09515 30.2531 7.4534 29.9829C7.09452 29.8318 6.83906 29.6764 6.68079 29.5292C6.52608 29.3853 6.5 29.2853 6.5 29.225C6.5 28.6777 6.73465 28.0712 7.21163 27.45C7.68704 26.8308 8.38356 26.2241 9.24879 25.6894C10.9804 24.6193 13.3274 23.875 15.75 23.875H16.7824ZM31.5 18.5C31.5 21.7989 28.7989 24.5 25.5 24.5C22.2011 24.5 19.5 21.7989 19.5 18.5C19.5 15.2011 22.2011 12.5 25.5 12.5C28.7989 12.5 31.5 15.2011 31.5 18.5ZM25.5 37.5L25.5 38L25.5 37.5H25.4997L25.4981 37.5L25.4916 37.5L25.4647 37.4999L25.3582 37.4992C25.2644 37.4984 25.1264 37.4969 24.9503 37.4937C24.5982 37.4874 24.0944 37.4749 23.4896 37.4497C22.2786 37.3992 20.6685 37.2984 19.062 37.0976C17.448 36.8959 15.8697 36.5968 14.7068 36.1607C14.1238 35.9421 13.6789 35.7012 13.3878 35.4465C13.1032 35.1974 13 34.9686 13 34.75C13 33.0606 14.4002 31.1603 16.7707 29.6464C19.111 28.1517 22.2682 27.125 25.5 27.125C28.7318 27.125 31.889 28.1517 34.2293 29.6464C36.5998 31.1603 38 33.0606 38 34.75C38 34.9686 37.8968 35.1974 37.6122 35.4465C37.3211 35.7012 36.8762 35.9421 36.2932 36.1607C35.1303 36.5968 33.552 36.8959 31.938 37.0976C30.3315 37.2984 28.7214 37.3992 27.5104 37.4497C26.9056 37.4749 26.4018 37.4874 26.0497 37.4937C25.8736 37.4969 25.7356 37.4984 25.6418 37.4992L25.5353 37.4999L25.5084 37.5L25.5019 37.5L25.5003 37.5H25.5ZM35.4284 21.2467C35.6442 20.3804 35.75 19.4369 35.75 18.5C35.75 16.3443 35.0571 14.3287 33.9211 12.701C34.3245 12.5669 34.7498 12.5 35.25 12.5C37.7364 12.5 39.625 14.3886 39.625 16.875C39.625 19.3015 37.8261 21.1588 35.4284 21.2467ZM17.0789 12.701C15.9429 14.3287 15.25 16.3443 15.25 18.5C15.25 19.4369 15.3558 20.3804 15.5716 21.2467C13.1739 21.1588 11.375 19.3015 11.375 16.875C11.375 14.3886 13.2636 12.5 15.75 12.5C16.2502 12.5 16.6755 12.5669 17.0789 12.701Z" stroke="#FFC90E"/>
</svg>
