<svg width="50" height="50" viewBox="0 0 50 50" fill="none" xmlns="http://www.w3.org/2000/svg">
<circle cx="25" cy="25" r="25" fill="black"/>
<path d="M30.9206 24.9931C30.7692 25.1406 30.6186 25.3206 30.484 25.4931C30.2069 25.8464 29.896 26.2972 29.614 26.723C29.3434 27.1313 29.0856 27.5379 28.8898 27.8512H25.525C25.2045 27.8512 24.8972 27.9829 24.6706 28.2173C24.444 28.4517 24.3167 28.7696 24.3167 29.1011C24.3167 29.4326 24.444 29.7505 24.6706 29.9849C24.8972 30.2193 25.2045 30.351 25.525 30.351L30.9206 24.9931ZM30.9206 24.9931C30.9947 24.9206 31.0979 24.8265 31.2235 24.7431L30.9206 24.9931ZM38.389 32.5467C39.0189 32.0326 39.4273 31.2826 39.669 30.5577L38.389 32.5467ZM38.389 32.5467V40.7477V32.5467ZM12.6111 33.3317H29.3396V33.9982H11.5V12.5H35.4723V15.6663H34.8612V13.6665V13.1665H34.3612H12.6111H12.1111V13.6665V32.8317V33.3317H12.6111ZM34.2172 34.409L33.0428 40.888C33.0085 41.0758 32.9085 41.2396 32.7672 41.3498C32.6264 41.4596 32.454 41.5092 32.2834 41.4928C32.1127 41.4764 31.9503 41.3945 31.8297 41.2578C31.7087 41.1206 31.6392 40.9387 31.6389 40.747V28.8595V27.1385L30.7168 28.5916C30.5542 28.8478 30.3937 29.1055 30.2354 29.3646L30.1729 29.4664L30.1713 29.4692L30.1552 29.4958L30.1486 29.5067L30.1451 29.5132C30.0802 29.6176 29.9924 29.7021 29.8908 29.7604C29.7864 29.8203 29.6702 29.8511 29.5531 29.851H29.5528H25.525C25.3427 29.851 25.1643 29.7763 25.0301 29.6374C24.8953 29.498 24.8167 29.3054 24.8167 29.1011C24.8167 28.8969 24.8953 28.7043 25.0301 28.5648C25.1643 28.426 25.3427 28.3512 25.525 28.3512H28.8898H29.167L29.3139 28.1162C29.5083 27.8049 29.7635 27.4024 30.0308 26.9993L30.0309 26.999C30.3108 26.5764 30.6129 26.1389 30.8774 25.8017L30.8783 25.8006C31.0073 25.6352 31.1418 25.4756 31.2695 25.3513L31.2703 25.3506C31.3343 25.2879 31.4118 25.2182 31.4998 25.1599L31.4999 25.1599L31.5044 25.1568C31.6451 25.0613 31.8074 25.0104 31.9725 25.0082H36.8028H36.8716C37.7127 25.0286 38.3706 25.4236 38.8137 26.0376C39.2473 26.6402 39.4449 27.4088 39.4897 28.1545L39.4897 28.1546C39.535 28.9067 39.4298 29.6975 39.1949 30.3989L39.1947 30.3995C38.9706 31.0716 38.6041 31.7257 38.0728 32.1593L37.889 32.3094V32.5467V40.7477L37.889 40.7486C37.8893 40.942 37.8191 41.1257 37.6966 41.2637C37.5745 41.4012 37.4101 41.4828 37.2377 41.4976C37.0655 41.5123 36.892 41.4599 36.7515 41.3466C36.6105 41.2328 36.5125 41.0652 36.4822 40.8748L36.482 40.874L35.4429 34.4187L35.3752 33.9982H34.9492H34.7092H34.2917L34.2172 34.409ZM36.5161 21.7528C36.1552 22.126 35.6695 22.3325 35.1667 22.3325C34.664 22.3325 34.1782 22.126 33.8174 21.7528C33.456 21.3789 33.2501 20.8684 33.2501 20.3327C33.2501 19.7969 33.456 19.2864 33.8174 18.9126C34.1782 18.5393 34.664 18.3329 35.1667 18.3329C35.6695 18.3329 36.1552 18.5393 36.5161 18.9126C36.8775 19.2864 37.0834 19.7969 37.0834 20.3327C37.0834 20.8684 36.8775 21.3789 36.5161 21.7528Z" stroke="#FFC90E"/>
</svg>
